<svg width="56" height="56" viewBox="0 0 56 56" fill="none" xmlns="http://www.w3.org/2000/svg">
<circle cx="28" cy="28" r="28" fill="#F4F7FE"/>
<g clip-path="url(#clip0_179_1093)">
<path d="M41.6312 24.0402H35.0766L29.083 15.0635C28.823 14.6803 28.3851 14.4888 27.9472 14.4888C27.5093 14.4888 27.0714 14.6803 26.8114 15.0772L20.8178 24.0402H14.2632C13.5106 24.0402 12.8948 24.656 12.8948 25.4086C12.8948 25.5318 12.9085 25.6549 12.9495 25.7781L16.4253 38.4632C16.74 39.6126 17.7937 40.4611 19.0526 40.4611H36.8418C38.1008 40.4611 39.1544 39.6126 39.4828 38.4632L42.9586 25.7781L42.9996 25.4086C42.9996 24.656 42.3839 24.0402 41.6312 24.0402ZM27.9472 18.2929L31.7787 24.0402H24.1157L27.9472 18.2929ZM36.8418 37.7242L19.0663 37.7379L16.0558 26.777H39.8523L36.8418 37.7242ZM27.9472 29.5138C26.442 29.5138 25.2104 30.7454 25.2104 32.2506C25.2104 33.7559 26.442 34.9874 27.9472 34.9874C29.4524 34.9874 30.684 33.7559 30.684 32.2506C30.684 30.7454 29.4524 29.5138 27.9472 29.5138Z" fill="#FF6A19"/>
</g>
<defs>
<clipPath id="clip0_179_1093">
<rect width="32.8417" height="32.8417" fill="white" transform="translate(11.5264 11.7246)"/>
</clipPath>
</defs>
</svg>
