<svg width="56" height="56" viewBox="0 0 56 56" fill="none" xmlns="http://www.w3.org/2000/svg">
<circle cx="28" cy="28" r="28" fill="#F4F7FE"/>
<g clip-path="url(#clip0_179_1099)">
<path d="M20.2842 24.3138H20.5578C21.6115 24.3138 22.4736 25.1759 22.4736 26.2296V35.8084C22.4736 36.8621 21.6115 37.7242 20.5578 37.7242H20.2842C19.2305 37.7242 18.3684 36.8621 18.3684 35.8084V26.2296C18.3684 25.1759 19.2305 24.3138 20.2842 24.3138ZM27.9472 18.5665C29.0009 18.5665 29.863 19.4286 29.863 20.4823V35.8084C29.863 36.8621 29.0009 37.7242 27.9472 37.7242C26.8935 37.7242 26.0314 36.8621 26.0314 35.8084V20.4823C26.0314 19.4286 26.8935 18.5665 27.9472 18.5665ZM35.6103 29.5138C36.6639 29.5138 37.526 30.3758 37.526 31.4295V35.8084C37.526 36.8621 36.6639 37.7242 35.6103 37.7242C34.5566 37.7242 33.6945 36.8621 33.6945 35.8084V31.4295C33.6945 30.3758 34.5566 29.5138 35.6103 29.5138Z" fill="#FF6A19"/>
</g>
<defs>
<clipPath id="clip0_179_1099">
<rect width="32.8417" height="32.8417" fill="white" transform="translate(11.5264 11.7246)"/>
</clipPath>
</defs>
</svg>
