<svg width="19" height="20" viewBox="0 0 19 20" fill="none" xmlns="http://www.w3.org/2000/svg">
<path d="M18.3882 7.77388L10.7929 0.51706L10.7778 0.502636C10.4287 0.179317 9.97268 0 9.49953 0C9.02637 0 8.57036 0.179317 8.2213 0.502636L8.20515 0.51706L0.6118 7.77388C0.419235 7.95421 0.265509 8.17282 0.160238 8.41603C0.0549673 8.65925 0.00041689 8.92183 0 9.18736V18.0769C0 18.5869 0.200178 19.0761 0.556497 19.4367C0.912816 19.7974 1.39609 20 1.9 20H6.46C6.96391 20 7.44718 19.7974 7.8035 19.4367C8.15982 19.0761 8.36 18.5869 8.36 18.0769V13.8461H10.64V18.0769C10.64 18.5869 10.8402 19.0761 11.1965 19.4367C11.5528 19.7974 12.0361 20 12.54 20H17.1C17.6039 20 18.0872 19.7974 18.4435 19.4367C18.7998 19.0761 19 18.5869 19 18.0769V9.18736C18.9996 8.92183 18.945 8.65925 18.8398 8.41603C18.7345 8.17282 18.5808 7.95421 18.3882 7.77388ZM16.72 17.6923H12.92V13.4615C12.92 13.2089 12.8709 12.9588 12.7754 12.7255C12.6799 12.4922 12.5399 12.2802 12.3635 12.1016C12.1871 11.923 11.9776 11.7814 11.7471 11.6847C11.5166 11.5881 11.2695 11.5384 11.02 11.5384H7.98C7.47609 11.5384 6.99282 11.741 6.6365 12.1016C6.28018 12.4623 6.08 12.9514 6.08 13.4615V17.6923H2.28V9.35371L9.5 2.45458L16.72 9.35371V17.6923Z" fill="white"/>
</svg>
