<svg width="20" height="20" viewBox="0 0 20 20" fill="none" xmlns="http://www.w3.org/2000/svg">
<g clip-path="url(#clip0_26_1957)">
<path d="M4.11603 15.8499C4.14003 15.8359 4.16203 15.8179 4.18203 15.7979L4.27203 15.7079L5.65603 14.3239C5.84803 14.1319 5.84803 13.8199 5.65603 13.6279L5.64403 13.6159C5.45203 13.4239 5.14003 13.4239 4.94803 13.6159L3.86803 14.6999C3.48403 14.2819 3.14603 13.8259 2.85603 13.3319C2.30003 12.3919 1.94603 11.3599 1.80003 10.2679C1.77603 10.0819 1.75603 9.89394 1.74403 9.70794H3.37603C3.64803 9.70794 3.86803 9.48594 3.86803 9.21394C3.86803 9.21194 3.86803 9.20994 3.86803 9.20794C3.86803 9.20594 3.86803 9.20394 3.86803 9.20194C3.86803 8.92994 3.65003 8.70794 3.37603 8.70794H1.74203C1.79803 7.78194 2.00803 6.88394 2.36803 6.03194C2.71403 5.21394 3.18603 4.46594 3.77403 3.80194L4.92803 4.95594C5.12003 5.14794 5.43203 5.14594 5.62603 4.95394C5.62803 4.95194 5.63003 4.94994 5.63403 4.94594C5.82803 4.75394 5.83003 4.44194 5.63603 4.24794L4.48203 3.09394C5.14603 2.50594 5.89403 2.03394 6.71203 1.68794C7.56403 1.32794 8.46203 1.11794 9.38803 1.06194V2.69594C9.38803 2.96794 9.61003 3.18794 9.88203 3.18794C9.88403 3.18794 9.88603 3.18794 9.88803 3.18794C9.89003 3.18794 9.89203 3.18794 9.89403 3.18794C10.166 3.18794 10.388 2.96994 10.388 2.69594V1.06394C11.314 1.11994 12.212 1.32994 13.064 1.68994C14.036 2.09994 14.908 2.68994 15.658 3.43994C16.408 4.18994 16.996 5.06194 17.408 6.03394C17.71 6.74994 17.908 7.49794 17.996 8.26594C18.024 8.51794 18.238 8.70794 18.492 8.70794C18.792 8.70794 19.022 8.44594 18.988 8.14994C18.942 7.75794 18.874 7.37394 18.78 6.99994C18.778 6.97994 18.774 6.95994 18.768 6.93994C17.65 2.50394 13.368 -0.488057 8.72803 0.105943C4.11403 0.693943 0.734027 4.64594 0.728027 9.17594C0.728027 9.18394 0.728027 9.19194 0.728027 9.19994V9.21794C0.728027 9.21994 0.728027 9.21994 0.728027 9.22194C0.728027 9.27394 0.730027 9.32794 0.730027 9.38194C0.768027 11.4659 1.50203 13.3799 2.70803 14.8999C2.73203 14.9299 2.75803 14.9559 2.78603 14.9779C2.94403 15.1719 3.11003 15.3599 3.28403 15.5399C3.36203 15.6219 3.44203 15.7019 3.52403 15.7819C3.68803 15.9379 3.93203 15.9559 4.11603 15.8499Z" fill="#8A9099"/>
<path d="M14.098 5.70595C14.294 5.50995 14.294 5.19395 14.098 4.99795C13.902 4.80195 13.586 4.80195 13.39 4.99795L10.98 7.40795C10.954 7.43395 10.932 7.46195 10.914 7.48995C10.614 7.30995 10.264 7.20795 9.888 7.20795C8.784 7.20795 7.888 8.10395 7.888 9.20795C7.888 10.312 8.784 11.208 9.888 11.208C10.992 11.208 11.888 10.312 11.888 9.20795C11.888 8.83195 11.784 8.48195 11.606 8.18195C11.636 8.16395 11.664 8.13995 11.688 8.11595L14.098 5.70595ZM9.888 10.208C9.336 10.208 8.888 9.75995 8.888 9.20795C8.888 8.65595 9.336 8.20795 9.888 8.20795C10.44 8.20795 10.888 8.65595 10.888 9.20795C10.888 9.75995 10.438 10.208 9.888 10.208Z" fill="#8A9099"/>
<path d="M19.024 11.008C18.808 10.792 18.504 10.71 18.208 10.79L16.008 11.38C15.714 11.46 15.49 11.682 15.41 11.978C15.332 12.272 15.412 12.578 15.628 12.794L16.128 13.294L13.1 16.324L10.64 13.864L10.26 13.482C10.08 13.302 9.78803 13.302 9.60803 13.482L3.97403 19.118C3.77803 19.314 3.77803 19.63 3.97403 19.826C4.17003 20.022 4.48603 20.022 4.68203 19.826L9.93403 14.574L12.746 17.386L12.75 17.382L12.782 17.414C12.96 17.592 13.248 17.592 13.428 17.414L16.84 14.002L17.244 14.406C17.406 14.568 17.618 14.654 17.838 14.654C17.912 14.654 17.986 14.644 18.06 14.624C18.354 14.544 18.578 14.322 18.658 14.026L19.248 11.826C19.322 11.53 19.24 11.224 19.024 11.008ZM17.758 13.504L17.144 12.89L16.53 12.276L18.208 11.826L17.758 13.504Z" fill="#8A9099"/>
</g>
<defs>
<clipPath id="clip0_26_1957">
<rect width="20" height="20" fill="white"/>
</clipPath>
</defs>
</svg>
