<svg width="20" height="20" viewBox="0 0 20 20" fill="none" xmlns="http://www.w3.org/2000/svg">
<g clip-path="url(#clip0_62_2285)">
<path d="M19.5 18.98H18.4V7.47998C18.4 6.65198 17.728 5.97998 16.9 5.97998C16.072 5.97998 15.4 6.65198 15.4 7.47998V18.98H13.8V11.48C13.8 10.652 13.128 9.97998 12.3 9.97998C11.472 9.97998 10.8 10.652 10.8 11.48V18.98H9.2V9.47998C9.2 8.65198 8.528 7.97998 7.7 7.97998C6.872 7.97998 6.2 8.65198 6.2 9.47998V18.98H4.6V13.48C4.6 12.652 3.928 11.98 3.1 11.98C2.272 11.98 1.6 12.652 1.6 13.48V18.98H0.5C0.224 18.98 0 19.204 0 19.48C0 19.756 0.224 19.98 0.5 19.98H1.6H4.6H6.2H9.2H10.8H13.8H15.4H18.4H19.5C19.776 19.98 20 19.756 20 19.48C20 19.204 19.776 18.98 19.5 18.98ZM2.6 18.98V13.48C2.6 13.204 2.824 12.98 3.1 12.98C3.376 12.98 3.6 13.204 3.6 13.48V18.98H2.6ZM7.2 18.98V9.47998C7.2 9.20398 7.424 8.97998 7.7 8.97998C7.976 8.97998 8.2 9.20398 8.2 9.47998V18.98H7.2ZM11.8 18.98V11.48C11.8 11.204 12.024 10.98 12.3 10.98C12.576 10.98 12.8 11.204 12.8 11.48V18.98H11.8ZM16.4 18.98V7.47998C16.4 7.20398 16.624 6.97998 16.9 6.97998C17.176 6.97998 17.4 7.20398 17.4 7.47998V18.98H16.4Z" fill="#8A9099"/>
<path d="M3.09998 9.02002C3.92798 9.02002 4.59998 8.34802 4.59998 7.52002C4.59998 7.32602 4.56198 7.14002 4.49598 6.97002L6.96198 4.82602C7.17998 4.95002 7.43198 5.02002 7.69998 5.02002C8.13398 5.02002 8.52398 4.83602 8.79798 4.54202L10.804 5.41402C10.802 5.44802 10.8 5.48402 10.8 5.52002C10.8 6.34802 11.472 7.02002 12.3 7.02002C13.128 7.02002 13.8 6.34802 13.8 5.52002C13.8 5.32602 13.762 5.14002 13.696 4.97002L16.162 2.82602C16.38 2.95002 16.632 3.02002 16.9 3.02002C17.728 3.02002 18.4 2.34802 18.4 1.52002C18.4 0.692019 17.728 0.0200195 16.9 0.0200195C16.072 0.0200195 15.4 0.692019 15.4 1.52002C15.4 1.71402 15.438 1.90002 15.504 2.07002L13.038 4.21402C12.82 4.09002 12.568 4.02002 12.3 4.02002C11.866 4.02002 11.476 4.20402 11.202 4.49802L9.19598 3.62602C9.19798 3.59202 9.19998 3.55602 9.19998 3.52002C9.19998 2.69202 8.52798 2.02002 7.69998 2.02002C6.87198 2.02002 6.19998 2.69202 6.19998 3.52002C6.19998 3.71402 6.23798 3.90002 6.30398 4.07002L3.83798 6.21402C3.61998 6.09002 3.36798 6.02002 3.09998 6.02002C2.27198 6.02002 1.59998 6.69202 1.59998 7.52002C1.59998 8.34802 2.27198 9.02002 3.09998 9.02002ZM16.9 1.02002C17.176 1.02002 17.4 1.24402 17.4 1.52002C17.4 1.79602 17.176 2.02002 16.9 2.02002C16.624 2.02002 16.4 1.79602 16.4 1.52002C16.4 1.24402 16.624 1.02002 16.9 1.02002ZM12.3 5.02002C12.576 5.02002 12.8 5.24402 12.8 5.52002C12.8 5.79602 12.576 6.02002 12.3 6.02002C12.024 6.02002 11.8 5.79602 11.8 5.52002C11.8 5.24402 12.024 5.02002 12.3 5.02002ZM7.69998 3.02002C7.97598 3.02002 8.19998 3.24402 8.19998 3.52002C8.19998 3.79602 7.97598 4.02002 7.69998 4.02002C7.42398 4.02002 7.19998 3.79602 7.19998 3.52002C7.19998 3.24402 7.42398 3.02002 7.69998 3.02002ZM3.09998 7.02002C3.37598 7.02002 3.59998 7.24402 3.59998 7.52002C3.59998 7.79602 3.37598 8.02002 3.09998 8.02002C2.82398 8.02002 2.59998 7.79602 2.59998 7.52002C2.59998 7.24402 2.82398 7.02002 3.09998 7.02002Z" fill="#8A9099"/>
</g>
<defs>
<clipPath id="clip0_62_2285">
<rect width="20" height="20" fill="white"/>
</clipPath>
</defs>
</svg>
