<svg width="30" height="30" viewBox="0 0 30 30" fill="none" xmlns="http://www.w3.org/2000/svg">
<g opacity="0.7">
<path fill-rule="evenodd" clip-rule="evenodd" d="M10.8175 10.0905C11.9019 8.14388 14.0754 7.24583 16.0954 7.45378C18.0819 7.65827 19.7208 8.89431 19.9954 11.0911C20.0657 11.6541 20.5443 12.0766 21.1116 12.0766C23.1737 12.0767 24.4737 13.6632 24.7127 15.7338C24.9476 17.7698 24.0814 19.7189 22.3259 20.3989L19.7019 20.3991L19.1511 20.3992L19.0326 20.3992L19.0054 20.3993L18.9988 20.3993H18.9972H18.9968H18.9967H18.9967C18.3754 20.3996 17.8719 20.9035 17.8722 21.5248C17.8725 22.1461 18.3765 22.6496 18.9978 22.6493H18.9978H18.9979H18.9983H18.9999L19.0063 22.6493L19.0335 22.6492L19.1517 22.6492L19.7022 22.6491L22.5213 22.6489C22.6422 22.6489 22.7624 22.6294 22.8771 22.5912C26.0789 21.5239 27.2671 18.2428 26.9478 15.4758C26.6549 12.938 25.0294 10.349 22.0526 9.89618C21.303 7.03841 18.8737 5.47789 16.3258 5.21561C13.857 4.96147 11.1204 5.89702 9.42928 8.11351C8.07652 7.70173 6.74949 8.17721 5.88387 9.08499C5.0437 9.96608 4.59771 11.2931 4.92541 12.6198C3.38235 13.8452 2.85508 15.8388 3.0331 17.6075C3.24037 19.6669 4.44241 21.8522 6.6595 22.5912C6.77421 22.6294 6.89434 22.6489 7.01525 22.6489L9.83437 22.6491L10.3849 22.6492L10.5032 22.6492L10.5303 22.6493L10.5368 22.6493H10.5383H10.5387H10.5388H10.5388C11.1602 22.6496 11.6641 22.1461 11.6644 21.5248C11.6647 20.9035 11.1613 20.3996 10.5399 20.3993H10.5399H10.5398H10.5394H10.5378L10.5313 20.3993L10.504 20.3992L10.3855 20.3992L9.83473 20.3991L7.21616 20.3989C6.1728 19.9682 5.41373 18.7925 5.27179 17.3822C5.12438 15.9176 5.68102 14.6302 6.80498 14.0804C7.08509 13.9433 7.29576 13.6962 7.3867 13.3979C7.47764 13.0996 7.4407 12.777 7.28468 12.507C6.90229 11.8452 7.06018 11.1118 7.51222 10.6377C7.93414 10.1953 8.54656 10.0361 9.21034 10.4789C9.47155 10.6532 9.79371 10.7103 10.0989 10.6366C10.4042 10.5628 10.6647 10.3649 10.8175 10.0905ZM15.5639 12.9756L14.7684 12.1802L13.9729 12.9756L10.4488 16.4998C10.0095 16.9391 10.0095 17.6514 10.4488 18.0907C10.8881 18.5301 11.6005 18.5301 12.0398 18.0907L13.6434 16.4871V23.6386C13.6434 24.26 14.1471 24.7636 14.7684 24.7636C15.3897 24.7636 15.8934 24.26 15.8934 23.6386V16.4871L17.497 18.0907C17.9364 18.5301 18.6487 18.5301 19.088 18.0907C19.5273 17.6514 19.5273 16.9391 19.088 16.4998L15.5639 12.9756Z" fill="#8A9099"/>
</g>
</svg>
