<svg width="38" height="38" viewBox="0 0 38 38" fill="none" xmlns="http://www.w3.org/2000/svg">
<circle cx="19" cy="19" r="19" fill="white"/>
<path d="M19.0001 9.83334C18.0276 9.83334 17.095 10.2197 16.4074 10.9073C15.7197 11.5949 15.3334 12.5275 15.3334 13.5C15.3334 14.4725 15.7197 15.4051 16.4074 16.0927C17.095 16.7804 18.0276 17.1667 19.0001 17.1667C19.9725 17.1667 20.9052 16.7804 21.5928 16.0927C22.2804 15.4051 22.6667 14.4725 22.6667 13.5C22.6667 12.5275 22.2804 11.5949 21.5928 10.9073C20.9052 10.2197 19.9725 9.83334 19.0001 9.83334ZM17.1667 13.5C17.1667 13.0138 17.3599 12.5475 17.7037 12.2036C18.0475 11.8598 18.5139 11.6667 19.0001 11.6667C19.4863 11.6667 19.9526 11.8598 20.2964 12.2036C20.6403 12.5475 20.8334 13.0138 20.8334 13.5C20.8334 13.9862 20.6403 14.4526 20.2964 14.7964C19.9526 15.1402 19.4863 15.3333 19.0001 15.3333C18.5139 15.3333 18.0475 15.1402 17.7037 14.7964C17.3599 14.4526 17.1667 13.9862 17.1667 13.5ZM23.5834 19H14.4167C13.6874 19 12.9879 19.2897 12.4722 19.8055C11.9565 20.3212 11.6667 21.0207 11.6667 21.75C11.6667 23.796 12.5082 25.435 13.8887 26.5442C15.2472 27.635 17.0696 28.1667 19.0001 28.1667C20.9306 28.1667 22.7529 27.635 24.1114 26.5442C25.4901 25.435 26.3334 23.796 26.3334 21.75C26.3334 21.0207 26.0437 20.3212 25.528 19.8055C25.0122 19.2897 24.3128 19 23.5834 19ZM14.4167 20.8333H23.5834C23.8265 20.8333 24.0597 20.9299 24.2316 21.1018C24.4035 21.2737 24.5001 21.5069 24.5001 21.75C24.5001 23.2478 23.9042 24.3588 22.9637 25.1142C21.9994 25.8878 20.6134 26.3333 19.0001 26.3333C17.3867 26.3333 16.0007 25.8878 15.0364 25.1142C14.0959 24.3588 13.5001 23.2478 13.5001 21.75C13.5001 21.5069 13.5967 21.2737 13.7686 21.1018C13.9405 20.9299 14.1736 20.8333 14.4167 20.8333Z" fill="black"/>
</svg>
