<svg width="20" height="20" viewBox="0 0 20 20" fill="none" xmlns="http://www.w3.org/2000/svg">
<path d="M11 7H8H7H5H4H3C1.896 7 1 7.896 1 9V17C1 18.104 1.896 19 3 19H11C12.104 19 13 18.104 13 17V16V15V13V12V9C13 7.896 12.104 7 11 7ZM12 12V13V15V16V17C12 17.552 11.552 18 11 18H3C2.448 18 2 17.552 2 17V9C2 8.448 2.448 8 3 8H4H5H7H8H11C11.552 8 12 8.448 12 9V12Z" fill="#8A9099"/>
<path d="M14 4H12.56H8.00003H7.00003H6.00003C5.13203 4 4.39203 4.556 4.11603 5.328C4.00003 5.656 4.23603 6 4.58403 6C4.80003 6 4.98403 5.86 5.05603 5.66C5.19603 5.276 5.56403 5 5.99603 5H6.99603H7.99603H13.996C14.548 5 14.996 5.448 14.996 6V12V13V14C14.996 14.432 14.72 14.8 14.336 14.94C14.136 15.012 13.996 15.2 13.996 15.412C13.996 15.76 14.34 16 14.668 15.88C15.44 15.604 15.996 14.864 15.996 13.996V12.996V11.996V6C16 4.896 15.104 4 14 4Z" fill="#8A9099"/>
<path d="M17 1H8.99997C8.13197 1 7.39197 1.556 7.11597 2.328C6.99997 2.656 7.23997 3 7.58397 3C7.79997 3 7.98397 2.86 8.05597 2.66C8.19997 2.276 8.56797 2 8.99997 2H17C17.552 2 18 2.448 18 3V11C18 11.432 17.724 11.8 17.34 11.94C17.14 12.012 17 12.2 17 12.412C17 12.76 17.344 13 17.672 12.88C18.444 12.604 19 11.864 19 10.996V3C19 1.896 18.104 1 17 1Z" fill="#8A9099"/>
</svg>
