<svg width="20" height="20" viewBox="0 0 20 20" fill="none" xmlns="http://www.w3.org/2000/svg">
<path d="M9.99998 1.66666C9.11592 1.66666 8.26808 2.01785 7.64296 2.64297C7.01784 3.26809 6.66665 4.11593 6.66665 4.99999C6.66665 5.88405 7.01784 6.73189 7.64296 7.35701C8.26808 7.98213 9.11592 8.33332 9.99998 8.33332C10.884 8.33332 11.7319 7.98213 12.357 7.35701C12.9821 6.73189 13.3333 5.88405 13.3333 4.99999C13.3333 4.11593 12.9821 3.26809 12.357 2.64297C11.7319 2.01785 10.884 1.66666 9.99998 1.66666ZM8.33331 4.99999C8.33331 4.55796 8.50891 4.13404 8.82147 3.82148C9.13403 3.50892 9.55795 3.33332 9.99998 3.33332C10.442 3.33332 10.8659 3.50892 11.1785 3.82148C11.4911 4.13404 11.6666 4.55796 11.6666 4.99999C11.6666 5.44202 11.4911 5.86594 11.1785 6.1785C10.8659 6.49106 10.442 6.66666 9.99998 6.66666C9.55795 6.66666 9.13403 6.49106 8.82147 6.1785C8.50891 5.86594 8.33331 5.44202 8.33331 4.99999ZM14.1666 9.99999H5.83331C5.17027 9.99999 4.53439 10.2634 4.06555 10.7322C3.59671 11.2011 3.33331 11.8369 3.33331 12.5C3.33331 14.36 4.09831 15.85 5.35331 16.8583C6.58831 17.85 8.24498 18.3333 9.99998 18.3333C11.755 18.3333 13.4116 17.85 14.6466 16.8583C15.9 15.85 16.6666 14.36 16.6666 12.5C16.6666 11.8369 16.4033 11.2011 15.9344 10.7322C15.4656 10.2634 14.8297 9.99999 14.1666 9.99999ZM5.83331 11.6667H14.1666C14.3877 11.6667 14.5996 11.7545 14.7559 11.9107C14.9122 12.067 15 12.279 15 12.5C15 13.8617 14.4583 14.8717 13.6033 15.5583C12.7266 16.2617 11.4666 16.6667 9.99998 16.6667C8.53331 16.6667 7.27331 16.2617 6.39665 15.5583C5.54165 14.8717 4.99998 13.8617 4.99998 12.5C4.99998 12.279 5.08778 12.067 5.24406 11.9107C5.40034 11.7545 5.6123 11.6667 5.83331 11.6667Z" fill="#6C6C6C"/>
</svg>
