<svg width="20" height="20" viewBox="0 0 20 20" fill="none" xmlns="http://www.w3.org/2000/svg">
<path d="M10.948 2.056C11.696 2.144 12.42 2.336 13.116 2.628C14.068 3.032 14.924 3.608 15.66 4.344C16.396 5.08 16.972 5.936 17.376 6.888C17.668 7.584 17.86 8.308 17.948 9.056C17.976 9.308 18.188 9.504 18.444 9.504C18.74 9.504 18.976 9.244 18.94 8.948C18.46 4.82 15.184 1.544 11.056 1.064C10.76 1.028 10.5 1.264 10.5 1.56C10.5 1.812 10.692 2.024 10.948 2.056Z" fill="#8A9099"/>
<path d="M18.44 10.5C18.184 10.5 17.972 10.692 17.944 10.944C17.856 11.692 17.664 12.416 17.372 13.112C17.092 13.776 16.724 14.392 16.28 14.952C16.124 15.148 16.144 15.432 16.32 15.612C16.532 15.824 16.88 15.804 17.064 15.572C18.068 14.3 18.736 12.748 18.936 11.056C18.972 10.76 18.74 10.5 18.44 10.5Z" fill="#8A9099"/>
<path d="M14.956 16.28C14.396 16.724 13.78 17.088 13.116 17.372C12.284 17.724 11.408 17.928 10.504 17.984C10.34 17.996 10.172 18 10.004 18C9.836 18 9.668 17.996 9.504 17.984C8.6 17.928 7.724 17.724 6.892 17.372C5.94 16.968 5.084 16.392 4.348 15.656C3.612 14.92 3.036 14.064 2.632 13.112C2.212 12.128 2 11.08 2 10C2 8.92 2.212 7.872 2.628 6.888C3.032 5.936 3.608 5.08 4.344 4.344C5.08 3.608 5.936 3.032 6.888 2.628C7.584 2.332 8.308 2.144 9.056 2.056C9.308 2.028 9.5 1.816 9.5 1.56C9.5 1.264 9.24 1.028 8.944 1.064C4.472 1.584 1 5.388 1 10C1 14.804 4.764 18.728 9.5 18.984C9.664 18.992 9.832 19 10 19C10.168 19 10.336 18.996 10.5 18.984C12.412 18.88 14.164 18.18 15.572 17.064C15.804 16.88 15.824 16.532 15.612 16.32C15.436 16.144 15.152 16.124 14.956 16.28Z" fill="#8A9099"/>
<path d="M9 7V13C9 13.552 9.448 14 10 14C10.552 14 11 13.552 11 13V7C11 6.448 10.552 6 10 6C9.448 6 9 6.448 9 7Z" fill="#8A9099"/>
<path d="M6 11C5.448 11 5 11.448 5 12V13C5 13.552 5.448 14 6 14C6.552 14 7 13.552 7 13V12C7 11.448 6.552 11 6 11Z" fill="#8A9099"/>
<path d="M13 11V13C13 13.552 13.448 14 14 14C14.552 14 15 13.552 15 13V11C15 10.448 14.552 10 14 10C13.448 10 13 10.448 13 11Z" fill="#8A9099"/>
</svg>
